<svg width="298" height="347" viewBox="0 0 298 347" fill="none" xmlns="http://www.w3.org/2000/svg">
<g clip-path="url(#clip0_1_3)">
<path d="M149 13L291.028 95V259L149 341L6.97183 259V95L149 13Z" fill="white"/>
<path d="M132.82 9.99L21.54 77.17C11.62 83.16 5.5 94.23 5.5 106.21V240.56C5.5 252.54 11.61 263.61 21.54 269.6L132.82 336.78C142.74 342.77 154.97 342.77 164.9 336.78L276.18 269.6C286.1 263.61 292.22 252.54 292.22 240.56V106.21C292.22 94.23 286.11 83.16 276.18 77.17L164.89 9.99C154.97 4 142.74 4 132.81 9.99H132.82ZM132.82 313.69L40.67 258.06C30.75 252.07 24.63 241 24.63 229.02V117.76C24.63 105.78 30.74 94.71 40.67 88.72L132.82 33.09C142.74 27.1 154.97 27.1 164.9 33.09L257.05 88.72C266.97 94.71 273.09 105.78 273.09 117.76V229.02C273.09 241 266.98 252.07 257.05 258.06L164.9 313.69C154.98 319.68 142.75 319.68 132.82 313.69Z" fill="#C4A1FF" stroke="#C4A1FF" stroke-width="11" stroke-miterlimit="10"/>
<path d="M66.38 239.42C61.04 239.61 55.96 236.91 53.12 232.38C48.73 225.37 50.87 216.09 57.88 211.71L223.9 107.87C226.13 106.47 228.7 105.69 231.31 105.6C236.65 105.41 241.73 108.11 244.57 112.64C246.7 116.04 247.37 120.06 246.47 123.96C245.57 127.86 243.2 131.18 239.81 133.31L73.79 237.15C71.56 238.55 68.99 239.33 66.38 239.42Z" fill="black"/>
<path d="M226.632 112.041L60.4685 215.992C55.8285 218.895 54.4202 225.01 57.323 229.65L57.4184 229.802C60.3212 234.442 66.4358 235.85 71.0757 232.948L237.239 128.996C241.879 126.094 243.287 119.979 240.384 115.339L240.289 115.187C237.386 110.547 231.271 109.138 226.632 112.041Z" fill="black"/>
<path d="M138.74 271.19C133.86 271.23 129.3 268.48 126.83 264.01C124.45 259.71 124.28 254.47 126.53 249.83C127.72 247.38 129.63 245.42 131.87 244.03L214.37 192.67C216.44 191.38 218.8 190.69 221.19 190.67C226.07 190.63 230.63 193.39 233.1 197.85C234.95 201.19 235.46 205.1 234.55 208.86C233.63 212.61 231.39 215.76 228.24 217.72L145.57 269.19C143.5 270.48 141.14 271.17 138.75 271.19H138.74Z" fill="black"/>
<path d="M130.8 261.64L130.72 261.5C128.19 256.93 129.63 251.05 133.92 248.38L216.76 196.81C221.06 194.13 226.59 195.67 229.13 200.24L229.21 200.38C231.74 204.95 230.3 210.83 226.01 213.5L143.17 265.07C138.87 267.75 133.34 266.21 130.8 261.64Z" fill="black"/>
</g>
<defs>
<clipPath id="clip0_1_3">
<rect width="297.71" height="346.78" fill="white"/>
</clipPath>
</defs>
</svg>
